<?xml version="1.0" encoding="UTF-8" standalone="no"?><svg xmlns="http://www.w3.org/2000/svg" xmlns:xlink="http://www.w3.org/1999/xlink" contentStyleType="text/css" height="862.8px" preserveAspectRatio="none" style="width:973px;height:862px;background:#FFFFFF;" version="1.1" viewBox="0 0 973 862" width="973.2px" zoomAndPan="magnify"><defs/><g><!--MD5=[9681dc6e01e10c6b4fe06895ae94f592]
cluster UI--><g id="cluster_UI"><path d="M341.7,399 L350.7,399 A2.25,2.25 0 0 1 352.2,400.5 L356.4,413.1656 L608.7,413.1656 A1.5,1.5 0 0 1 610.2,414.6656 L610.2,674.1 A1.5,1.5 0 0 1 608.7,675.6 L341.7,675.6 A1.5,1.5 0 0 1 340.2,674.1 L340.2,400.5 A1.5,1.5 0 0 1 341.7,399 " style="stroke:#000000;stroke-width:0.8999999999999999;fill:none;"/><line style="stroke:#000000;stroke-width:0.8999999999999999;fill:none;" x1="340.2" x2="356.4" y1="413.1656" y2="413.1656"/><text fill="#000000" font-family="sans-serif" font-size="8.4" font-weight="bold" lengthAdjust="spacing" textLength="8.4" x="342.6" y="408.9199">UI</text></g><!--MD5=[1f2cfc53d9d308f53762fd0fcbaa4873]
cluster Controller--><g id="cluster_Controller"><path d="M635.7,532.2 L678.9,532.2 A2.25,2.25 0 0 1 680.4,533.7 L684.6,546.3656 L915.3,546.3656 A1.5,1.5 0 0 1 916.8,547.8656 L916.8,705.9 A1.5,1.5 0 0 1 915.3,707.4 L635.7,707.4 A1.5,1.5 0 0 1 634.2,705.9 L634.2,533.7 A1.5,1.5 0 0 1 635.7,532.2 " style="stroke:#000000;stroke-width:0.8999999999999999;fill:none;"/><line style="stroke:#000000;stroke-width:0.8999999999999999;fill:none;" x1="634.2" x2="684.6" y1="546.3656" y2="546.3656"/><text fill="#000000" font-family="sans-serif" font-size="8.4" font-weight="bold" lengthAdjust="spacing" textLength="42.6" x="636.6" y="542.1199">Controller</text></g><!--MD5=[71971f99a41bb66cf321ce46bb59f738]
cluster Repository--><g id="cluster_Repository"><path d="M725.7,747 L771.9,747 A2.25,2.25 0 0 1 773.4,748.5 L777.6,761.1656 L891.3,761.1656 A1.5,1.5 0 0 1 892.8,762.6656 L892.8,857.1 A1.5,1.5 0 0 1 891.3,858.6 L725.7,858.6 A1.5,1.5 0 0 1 724.2,857.1 L724.2,748.5 A1.5,1.5 0 0 1 725.7,747 " style="stroke:#000000;stroke-width:0.8999999999999999;fill:none;"/><line style="stroke:#000000;stroke-width:0.8999999999999999;fill:none;" x1="724.2" x2="777.6" y1="761.1656" y2="761.1656"/><text fill="#000000" font-family="sans-serif" font-size="8.4" font-weight="bold" lengthAdjust="spacing" textLength="45.6" x="726.6" y="756.9199">Repository</text></g><!--MD5=[121a8bf1197281ab89ed693fab589f94]
cluster Domain--><g id="cluster_Domain"><path d="M5.1,3.6 L36.9,3.6 A2.25,2.25 0 0 1 38.4,5.1 L42.6,17.7656 L305.1,17.7656 A1.5,1.5 0 0 1 306.6,19.2656 L306.6,362.7 A1.5,1.5 0 0 1 305.1,364.2 L5.1,364.2 A1.5,1.5 0 0 1 3.6,362.7 L3.6,5.1 A1.5,1.5 0 0 1 5.1,3.6 " style="stroke:#000000;stroke-width:0.8999999999999999;fill:none;"/><line style="stroke:#000000;stroke-width:0.8999999999999999;fill:none;" x1="3.6" x2="42.6" y1="17.7656" y2="17.7656"/><text fill="#000000" font-family="sans-serif" font-size="8.4" font-weight="bold" lengthAdjust="spacing" textLength="31.2" x="6" y="13.5199">Domain</text></g><!--MD5=[335f4d9be48430461c68bf6d6fdba145]
class App--><g id="elem_App"><rect codeLine="4" fill="#F1F1F1" height="39.3656" id="App" rx="1.5" ry="1.5" style="stroke:#181818;stroke-width:0.3;" width="39.6" x="633" y="170.1"/><ellipse cx="644.43" cy="179.7" fill="#ADD1B2" rx="6.6" ry="6.6" style="stroke:#181818;stroke-width:0.6;"/><path d="M645.63,177.6 Q645.7519,177.3 645.8925,177.15 Q646.0331,177 646.1925,177 Q646.4738,177 646.6519,177.1688 Q646.83,177.3375 646.83,177.7313 L646.83,178.6688 Q646.83,179.0625 646.6613,179.2313 Q646.4925,179.4 646.23,179.4 Q645.9956,179.4 645.8456,179.2969 Q645.6956,179.1938 645.63,178.9219 Q645.6019,178.7344 645.4988,178.6313 Q645.3113,178.4344 644.9738,178.3219 Q644.6362,178.2 644.2987,178.2 Q643.8769,178.2 643.5206,178.3688 Q643.1737,178.5375 642.9019,178.9125 Q642.63,179.2875 642.63,179.8031 L642.63,180.3563 Q642.63,180.975 643.1362,181.3875 Q643.6425,181.8 644.5425,181.8 Q645.0769,181.8 645.4519,181.6781 Q645.6675,181.6125 645.9113,181.3969 Q646.0706,181.275 646.155,181.2375 Q646.2394,181.2 646.3425,181.2 Q646.5394,181.2 646.68,181.3594 Q646.83,181.5094 646.83,181.725 Q646.83,181.9313 646.6238,182.175 Q646.3237,182.5313 645.8456,182.7281 Q645.2175,183 644.4487,183 Q643.5487,183 642.8269,182.6437 Q642.2456,182.3625 641.8331,181.7531 Q641.43,181.1437 641.43,180.4219 L641.43,179.7656 Q641.43,179.0156 641.7863,178.3594 Q642.1519,177.7031 642.78,177.3563 Q643.4175,177 644.13,177 Q644.5613,177 644.9363,177.15 Q645.3113,177.3 645.63,177.6 Z " fill="#000000"/><text fill="#000000" font-family="sans-serif" font-size="8.4" lengthAdjust="spacing" textLength="15" x="653.37" y="183.1371">App</text><line style="stroke:#181818;stroke-width:0.3;" x1="633.6" x2="672" y1="189.3" y2="189.3"/><line style="stroke:#181818;stroke-width:0.3;" x1="633.6" x2="672" y1="194.1" y2="194.1"/><ellipse cx="639.6" cy="200.7" fill="#84BE84" rx="1.8" ry="1.8" style="stroke:#038048;stroke-width:0.6;"/><text fill="#000000" font-family="sans-serif" font-size="8.4" lengthAdjust="spacing" textLength="24" x="645" y="205.2199">main()</text></g><!--MD5=[38f25a73958aa07c6168d848119c26c3]
class UI.User--><g id="elem_UI.User"><rect codeLine="10" fill="#F1F1F1" height="39.3656" id="UI.User" rx="1.5" ry="1.5" style="stroke:#181818;stroke-width:0.3;" width="79.8" x="482.7" y="437.4"/><ellipse cx="511.35" cy="447" fill="#ADD1B2" rx="6.6" ry="6.6" style="stroke:#181818;stroke-width:0.6;"/><path d="M512.55,444.9 Q512.6719,444.6 512.8125,444.45 Q512.9531,444.3 513.1125,444.3 Q513.3938,444.3 513.5719,444.4688 Q513.75,444.6375 513.75,445.0313 L513.75,445.9688 Q513.75,446.3625 513.5813,446.5313 Q513.4125,446.7 513.15,446.7 Q512.9156,446.7 512.7656,446.5969 Q512.6156,446.4938 512.55,446.2219 Q512.5219,446.0344 512.4187,445.9313 Q512.2312,445.7344 511.8937,445.6219 Q511.5563,445.5 511.2188,445.5 Q510.7969,445.5 510.4406,445.6688 Q510.0938,445.8375 509.8219,446.2125 Q509.55,446.5875 509.55,447.1031 L509.55,447.6563 Q509.55,448.275 510.0563,448.6875 Q510.5625,449.1 511.4625,449.1 Q511.9969,449.1 512.3719,448.9781 Q512.5875,448.9125 512.8313,448.6969 Q512.9906,448.575 513.075,448.5375 Q513.1594,448.5 513.2625,448.5 Q513.4594,448.5 513.6,448.6594 Q513.75,448.8094 513.75,449.025 Q513.75,449.2313 513.5437,449.475 Q513.2438,449.8313 512.7656,450.0281 Q512.1375,450.3 511.3688,450.3 Q510.4688,450.3 509.7469,449.9437 Q509.1656,449.6625 508.7531,449.0531 Q508.35,448.4437 508.35,447.7219 L508.35,447.0656 Q508.35,446.3156 508.7062,445.6594 Q509.0719,445.0031 509.7,444.6563 Q510.3375,444.3 511.05,444.3 Q511.4813,444.3 511.8563,444.45 Q512.2312,444.6 512.55,444.9 Z " fill="#000000"/><text fill="#000000" font-family="sans-serif" font-size="8.4" lengthAdjust="spacing" textLength="17.4" x="523.65" y="450.4371">User</text><line style="stroke:#181818;stroke-width:0.3;" x1="483.3" x2="561.9" y1="456.6" y2="456.6"/><line style="stroke:#181818;stroke-width:0.3;" x1="483.3" x2="561.9" y1="461.4" y2="461.4"/><ellipse cx="489.3" cy="468" fill="#84BE84" rx="1.8" ry="1.8" style="stroke:#038048;stroke-width:0.6;"/><text fill="#000000" font-family="sans-serif" font-size="8.4" lengthAdjust="spacing" textLength="64.2" x="494.7" y="472.5199">void showMenu()</text></g><polygon fill="none" points="516.0627,476.7656,516.2662,489.4778,508.2944,486.8301" style="stroke:#181818;stroke-width:0.6;"/><line style="stroke:#181818;stroke-width:0.6;" x1="512.2803" x2="511.8" y1="488.1539" y2="489.6"/><!--MD5=[371f436936ec2044884fa170ff39813c]
class UI.Manager--><g id="elem_UI.Manager"><rect codeLine="14" fill="#F1F1F1" height="39.3656" id="UI.Manager" rx="1.5" ry="1.5" style="stroke:#181818;stroke-width:0.3;" width="79.8" x="354.9" y="606"/><ellipse cx="376.05" cy="615.6" fill="#ADD1B2" rx="6.6" ry="6.6" style="stroke:#181818;stroke-width:0.6;"/><path d="M377.25,613.5 Q377.3719,613.2 377.5125,613.05 Q377.6531,612.9 377.8125,612.9 Q378.0938,612.9 378.2719,613.0688 Q378.45,613.2375 378.45,613.6313 L378.45,614.5688 Q378.45,614.9625 378.2813,615.1313 Q378.1125,615.3 377.85,615.3 Q377.6156,615.3 377.4656,615.1969 Q377.3156,615.0938 377.25,614.8219 Q377.2219,614.6344 377.1188,614.5313 Q376.9313,614.3344 376.5938,614.2219 Q376.2562,614.1 375.9188,614.1 Q375.4969,614.1 375.1406,614.2688 Q374.7938,614.4375 374.5219,614.8125 Q374.25,615.1875 374.25,615.7031 L374.25,616.2563 Q374.25,616.875 374.7562,617.2875 Q375.2625,617.7 376.1625,617.7 Q376.6969,617.7 377.0719,617.5781 Q377.2875,617.5125 377.5313,617.2969 Q377.6906,617.175 377.775,617.1375 Q377.8594,617.1 377.9625,617.1 Q378.1594,617.1 378.3,617.2594 Q378.45,617.4094 378.45,617.625 Q378.45,617.8313 378.2438,618.075 Q377.9437,618.4313 377.4656,618.6281 Q376.8375,618.9 376.0687,618.9 Q375.1688,618.9 374.4469,618.5437 Q373.8656,618.2625 373.4531,617.6531 Q373.05,617.0437 373.05,616.3219 L373.05,615.6656 Q373.05,614.9156 373.4063,614.2594 Q373.7719,613.6031 374.4,613.2563 Q375.0375,612.9 375.75,612.9 Q376.1813,612.9 376.5563,613.05 Q376.9313,613.2 377.25,613.5 Z " fill="#000000"/><text fill="#000000" font-family="sans-serif" font-size="8.4" lengthAdjust="spacing" textLength="33.6" x="387.15" y="619.0371">Manager</text><line style="stroke:#181818;stroke-width:0.3;" x1="355.5" x2="434.1" y1="625.2" y2="625.2"/><line style="stroke:#181818;stroke-width:0.3;" x1="355.5" x2="434.1" y1="630" y2="630"/><ellipse cx="361.5" cy="636.6" fill="#84BE84" rx="1.8" ry="1.8" style="stroke:#038048;stroke-width:0.6;"/><text fill="#000000" font-family="sans-serif" font-size="8.4" lengthAdjust="spacing" textLength="64.2" x="366.9" y="641.1199">void showMenu()</text></g><!--MD5=[d1e97f9fa6f96c932ede3cb5e2721186]
class UI.Client--><g id="elem_UI.Client"><rect codeLine="18" fill="#F1F1F1" height="71.0625" id="UI.Client" rx="1.5" ry="1.5" style="stroke:#181818;stroke-width:0.3;" width="135" x="455.7" y="590.4"/><ellipse cx="509.85" cy="600" fill="#ADD1B2" rx="6.6" ry="6.6" style="stroke:#181818;stroke-width:0.6;"/><path d="M511.05,597.9 Q511.1719,597.6 511.3125,597.45 Q511.4531,597.3 511.6125,597.3 Q511.8937,597.3 512.0719,597.4688 Q512.25,597.6375 512.25,598.0313 L512.25,598.9688 Q512.25,599.3625 512.0813,599.5313 Q511.9125,599.7 511.65,599.7 Q511.4156,599.7 511.2656,599.5969 Q511.1156,599.4938 511.05,599.2219 Q511.0219,599.0344 510.9188,598.9313 Q510.7313,598.7344 510.3937,598.6219 Q510.0563,598.5 509.7188,598.5 Q509.2969,598.5 508.9406,598.6687 Q508.5938,598.8375 508.3219,599.2125 Q508.05,599.5875 508.05,600.1031 L508.05,600.6563 Q508.05,601.275 508.5563,601.6875 Q509.0625,602.1 509.9625,602.1 Q510.4969,602.1 510.8719,601.9781 Q511.0875,601.9125 511.3312,601.6969 Q511.4906,601.575 511.575,601.5375 Q511.6594,601.5 511.7625,601.5 Q511.9594,601.5 512.1,601.6594 Q512.25,601.8094 512.25,602.025 Q512.25,602.2312 512.0437,602.475 Q511.7438,602.8313 511.2656,603.0281 Q510.6375,603.3 509.8688,603.3 Q508.9688,603.3 508.2469,602.9438 Q507.6656,602.6625 507.2531,602.0531 Q506.85,601.4438 506.85,600.7219 L506.85,600.0656 Q506.85,599.3156 507.2062,598.6594 Q507.5719,598.0031 508.2,597.6563 Q508.8375,597.3 509.55,597.3 Q509.9813,597.3 510.3563,597.45 Q510.7313,597.6 511.05,597.9 Z " fill="#000000"/><text fill="#000000" font-family="sans-serif" font-size="8.4" lengthAdjust="spacing" textLength="21.6" x="522.15" y="603.4371">Client</text><line style="stroke:#181818;stroke-width:0.3;" x1="456.3" x2="590.1" y1="609.6" y2="609.6"/><rect fill="none" height="3.6" style="stroke:#C82930;stroke-width:0.6;" width="3.6" x="460.5" y="614.4"/><text fill="#000000" font-family="sans-serif" font-size="8.4" lengthAdjust="spacing" textLength="86.4" x="467.7" y="620.7199">favorites : vector&lt;Car&gt;</text><line style="stroke:#181818;stroke-width:0.3;" x1="456.3" x2="590.1" y1="624.9656" y2="624.9656"/><ellipse cx="462.3" cy="631.5656" fill="#84BE84" rx="1.8" ry="1.8" style="stroke:#038048;stroke-width:0.6;"/><text fill="#000000" font-family="sans-serif" font-size="8.4" lengthAdjust="spacing" textLength="64.2" x="467.7" y="636.0855">void showMenu()</text><ellipse cx="462.3" cy="642.1313" fill="#84BE84" rx="1.8" ry="1.8" style="stroke:#038048;stroke-width:0.6;"/><text fill="#000000" font-family="sans-serif" font-size="8.4" lengthAdjust="spacing" textLength="104.4" x="467.7" y="646.6512">vector&lt;Car&gt; get_favorites()</text><ellipse cx="462.3" cy="652.6969" fill="#84BE84" rx="1.8" ry="1.8" style="stroke:#038048;stroke-width:0.6;"/><text fill="#000000" font-family="sans-serif" font-size="8.4" lengthAdjust="spacing" textLength="119.4" x="467.7" y="657.2168">void set_favorties(vector&lt;Car&gt;)</text></g><!--MD5=[07eab661c0ace1fd8749e1672c024adb]
class UI.UserInterface--><g id="elem_UI.UserInterface"><rect codeLine="29" fill="#F1F1F1" height="60.4969" id="UI.UserInterface" rx="1.5" ry="1.5" style="stroke:#181818;stroke-width:0.3;" width="93" x="356.1" y="426.9"/><ellipse cx="375.63" cy="436.5" fill="#ADD1B2" rx="6.6" ry="6.6" style="stroke:#181818;stroke-width:0.6;"/><path d="M376.83,434.4 Q376.9519,434.1 377.0925,433.95 Q377.2331,433.8 377.3925,433.8 Q377.6738,433.8 377.8519,433.9688 Q378.03,434.1375 378.03,434.5313 L378.03,435.4688 Q378.03,435.8625 377.8613,436.0313 Q377.6925,436.2 377.43,436.2 Q377.1956,436.2 377.0456,436.0969 Q376.8956,435.9938 376.83,435.7219 Q376.8019,435.5344 376.6987,435.4313 Q376.5112,435.2344 376.1738,435.1219 Q375.8362,435 375.4988,435 Q375.0769,435 374.7206,435.1688 Q374.3738,435.3375 374.1019,435.7125 Q373.83,436.0875 373.83,436.6031 L373.83,437.1563 Q373.83,437.775 374.3362,438.1875 Q374.8425,438.6 375.7425,438.6 Q376.2769,438.6 376.6519,438.4781 Q376.8675,438.4125 377.1113,438.1969 Q377.2706,438.075 377.355,438.0375 Q377.4394,438 377.5425,438 Q377.7394,438 377.88,438.1594 Q378.03,438.3094 378.03,438.525 Q378.03,438.7313 377.8237,438.975 Q377.5237,439.3313 377.0456,439.5281 Q376.4175,439.8 375.6487,439.8 Q374.7488,439.8 374.0269,439.4437 Q373.4456,439.1625 373.0331,438.5531 Q372.63,437.9437 372.63,437.2219 L372.63,436.5656 Q372.63,435.8156 372.9863,435.1594 Q373.3519,434.5031 373.98,434.1563 Q374.6175,433.8 375.33,433.8 Q375.7612,433.8 376.1362,433.95 Q376.5112,434.1 376.83,434.4 Z " fill="#000000"/><text fill="#000000" font-family="sans-serif" font-size="8.4" lengthAdjust="spacing" textLength="50.4" x="386.37" y="439.9371">UserInterface</text><line style="stroke:#181818;stroke-width:0.3;" x1="356.7" x2="448.5" y1="446.1" y2="446.1"/><rect fill="none" height="3.6" style="stroke:#C82930;stroke-width:0.6;" width="3.6" x="360.9" y="450.9"/><text fill="#000000" font-family="sans-serif" font-size="8.4" lengthAdjust="spacing" textLength="41.4" x="368.1" y="457.2199">user : User</text><rect fill="none" height="3.6" style="stroke:#C82930;stroke-width:0.6;" width="3.6" x="360.9" y="461.4656"/><text fill="#000000" font-family="sans-serif" font-size="8.4" lengthAdjust="spacing" textLength="77.4" x="368.1" y="467.7855">auto_ctrl : Controller</text><line style="stroke:#181818;stroke-width:0.3;" x1="356.7" x2="448.5" y1="472.0313" y2="472.0313"/><ellipse cx="362.7" cy="478.6312" fill="#84BE84" rx="1.8" ry="1.8" style="stroke:#038048;stroke-width:0.6;"/><text fill="#000000" font-family="sans-serif" font-size="8.4" lengthAdjust="spacing" textLength="63.6" x="368.1" y="483.1512">void simple_init()</text></g><!--MD5=[e328aa62d4b0acf1f5a6346909c16d9d]
class Controller.Car_Controller--><g id="elem_Controller.Car_Controller"><rect codeLine="39" fill="#F1F1F1" height="134.4562" id="Controller.Car_Controller" rx="1.5" ry="1.5" style="stroke:#181818;stroke-width:0.3;" width="241.8" x="660.3" y="558.6"/><ellipse cx="750.75" cy="568.2" fill="#ADD1B2" rx="6.6" ry="6.6" style="stroke:#181818;stroke-width:0.6;"/><path d="M751.95,566.1 Q752.0719,565.8 752.2125,565.65 Q752.3531,565.5 752.5125,565.5 Q752.7937,565.5 752.9719,565.6687 Q753.15,565.8375 753.15,566.2312 L753.15,567.1687 Q753.15,567.5625 752.9812,567.7312 Q752.8125,567.9 752.55,567.9 Q752.3156,567.9 752.1656,567.7969 Q752.0156,567.6938 751.95,567.4219 Q751.9219,567.2344 751.8188,567.1313 Q751.6313,566.9344 751.2937,566.8219 Q750.9563,566.7 750.6188,566.7 Q750.1969,566.7 749.8406,566.8688 Q749.4938,567.0375 749.2219,567.4125 Q748.95,567.7875 748.95,568.3031 L748.95,568.8562 Q748.95,569.475 749.4563,569.8875 Q749.9625,570.3 750.8625,570.3 Q751.3969,570.3 751.7719,570.1781 Q751.9875,570.1125 752.2312,569.8969 Q752.3906,569.775 752.475,569.7375 Q752.5594,569.7 752.6625,569.7 Q752.8594,569.7 753,569.8594 Q753.15,570.0094 753.15,570.225 Q753.15,570.4313 752.9438,570.675 Q752.6438,571.0313 752.1656,571.2281 Q751.5375,571.5 750.7688,571.5 Q749.8688,571.5 749.1469,571.1438 Q748.5656,570.8625 748.1531,570.2531 Q747.75,569.6438 747.75,568.9219 L747.75,568.2656 Q747.75,567.5156 748.1062,566.8594 Q748.4719,566.2031 749.1,565.8562 Q749.7375,565.5 750.45,565.5 Q750.8813,565.5 751.2563,565.65 Q751.6313,565.8 751.95,566.1 Z " fill="#000000"/><text fill="#000000" font-family="sans-serif" font-size="8.4" lengthAdjust="spacing" textLength="55.8" x="763.05" y="571.6371">Car_Controller</text><line style="stroke:#181818;stroke-width:0.3;" x1="660.9" x2="901.5" y1="577.8" y2="577.8"/><rect fill="none" height="3.6" style="stroke:#C82930;stroke-width:0.6;" width="3.6" x="665.1" y="582.6"/><text fill="#000000" font-family="sans-serif" font-size="8.4" lengthAdjust="spacing" textLength="100.8" x="672.3" y="588.9199">car_repo : Car_Repository</text><line style="stroke:#181818;stroke-width:0.3;" x1="660.9" x2="901.5" y1="593.1656" y2="593.1656"/><ellipse cx="666.9" cy="599.7656" fill="#84BE84" rx="1.8" ry="1.8" style="stroke:#038048;stroke-width:0.6;"/><text fill="#000000" font-family="sans-serif" font-size="8.4" lengthAdjust="spacing" textLength="157.8" x="672.3" y="604.2855">Car_Controller(Car_Repository car_repo)</text><ellipse cx="666.9" cy="610.3313" fill="#84BE84" rx="1.8" ry="1.8" style="stroke:#038048;stroke-width:0.6;"/><text fill="#000000" font-family="sans-serif" font-size="8.4" lengthAdjust="spacing" textLength="118.8" x="672.3" y="614.8512">Car_Repository get_car_repo()</text><ellipse cx="666.9" cy="620.8969" fill="#84BE84" rx="1.8" ry="1.8" style="stroke:#038048;stroke-width:0.6;"/><text fill="#000000" font-family="sans-serif" font-size="8.4" lengthAdjust="spacing" textLength="170.4" x="672.3" y="625.4168">void set_car_repo(Car_Repository car_repo)</text><ellipse cx="666.9" cy="631.4625" fill="#84BE84" rx="1.8" ry="1.8" style="stroke:#038048;stroke-width:0.6;"/><text fill="#000000" font-family="sans-serif" font-size="8.4" lengthAdjust="spacing" textLength="83.4" x="672.3" y="635.9824">void add_car(Car car)</text><ellipse cx="666.9" cy="642.0281" fill="#84BE84" rx="1.8" ry="1.8" style="stroke:#038048;stroke-width:0.6;"/><text fill="#000000" font-family="sans-serif" font-size="8.4" lengthAdjust="spacing" textLength="93" x="672.3" y="646.548">bool delete_car(Car car)</text><ellipse cx="666.9" cy="652.5938" fill="#84BE84" rx="1.8" ry="1.8" style="stroke:#038048;stroke-width:0.6;"/><text fill="#000000" font-family="sans-serif" font-size="8.4" lengthAdjust="spacing" textLength="165" x="672.3" y="657.1137">bool update_car(Car old_car, Car new_car)</text><ellipse cx="666.9" cy="663.1594" fill="#84BE84" rx="1.8" ry="1.8" style="stroke:#038048;stroke-width:0.6;"/><text fill="#000000" font-family="sans-serif" font-size="8.4" lengthAdjust="spacing" textLength="226.2" x="672.3" y="667.6793">vector&lt;Car&gt; search_car(string car_model, string car_make)</text><ellipse cx="666.9" cy="673.725" fill="#84BE84" rx="1.8" ry="1.8" style="stroke:#038048;stroke-width:0.6;"/><text fill="#000000" font-family="sans-serif" font-size="8.4" lengthAdjust="spacing" textLength="174.6" x="672.3" y="678.2449">vector&lt;Car&gt; filter_car(int car_age, int car_km)</text><ellipse cx="666.9" cy="684.2906" fill="#84BE84" rx="1.8" ry="1.8" style="stroke:#038048;stroke-width:0.6;"/><text fill="#000000" font-family="sans-serif" font-size="8.4" lengthAdjust="spacing" textLength="87.6" x="672.3" y="688.8105">vector&lt;Car&gt; asc_sort()</text></g><!--MD5=[7f6e5ca9ce8fcdd9fb2a4c9a17d9f908]
class Repository.Car_Repository--><g id="elem_Repository.Car_Repository"><rect codeLine="57" fill="#F1F1F1" height="71.0625" id="Repository.Car_Repository" rx="1.5" ry="1.5" style="stroke:#181818;stroke-width:0.3;" width="127.8" x="750.3" y="773.4"/><ellipse cx="781.95" cy="783" fill="#ADD1B2" rx="6.6" ry="6.6" style="stroke:#181818;stroke-width:0.6;"/><path d="M783.15,780.9 Q783.2719,780.6 783.4125,780.45 Q783.5531,780.3 783.7125,780.3 Q783.9938,780.3 784.1719,780.4688 Q784.35,780.6375 784.35,781.0313 L784.35,781.9688 Q784.35,782.3625 784.1813,782.5313 Q784.0125,782.7 783.75,782.7 Q783.5156,782.7 783.3656,782.5969 Q783.2156,782.4938 783.15,782.2219 Q783.1219,782.0344 783.0188,781.9313 Q782.8313,781.7344 782.4938,781.6219 Q782.1563,781.5 781.8188,781.5 Q781.3969,781.5 781.0406,781.6687 Q780.6938,781.8375 780.4219,782.2125 Q780.15,782.5875 780.15,783.1031 L780.15,783.6563 Q780.15,784.275 780.6563,784.6875 Q781.1625,785.1 782.0625,785.1 Q782.5969,785.1 782.9719,784.9781 Q783.1875,784.9125 783.4313,784.6969 Q783.5906,784.575 783.675,784.5375 Q783.7594,784.5 783.8625,784.5 Q784.0594,784.5 784.2,784.6594 Q784.35,784.8094 784.35,785.025 Q784.35,785.2312 784.1438,785.475 Q783.8438,785.8313 783.3656,786.0281 Q782.7375,786.3 781.9688,786.3 Q781.0688,786.3 780.3469,785.9438 Q779.7656,785.6625 779.3531,785.0531 Q778.95,784.4438 778.95,783.7219 L778.95,783.0656 Q778.95,782.3156 779.3063,781.6594 Q779.6719,781.0031 780.3,780.6563 Q780.9375,780.3 781.65,780.3 Q782.0813,780.3 782.4563,780.45 Q782.8313,780.6 783.15,780.9 Z " fill="#000000"/><text fill="#000000" font-family="sans-serif" font-size="8.4" lengthAdjust="spacing" textLength="59.4" x="794.25" y="786.4371">Car_Repository</text><line style="stroke:#181818;stroke-width:0.3;" x1="750.9" x2="877.5" y1="792.6" y2="792.6"/><rect fill="none" height="3.6" style="stroke:#C82930;stroke-width:0.6;" width="3.6" x="755.1" y="797.4"/><text fill="#000000" font-family="sans-serif" font-size="8.4" lengthAdjust="spacing" textLength="82.8" x="762.3" y="803.7199">storage : vector&lt;Car&gt;</text><line style="stroke:#181818;stroke-width:0.3;" x1="750.9" x2="877.5" y1="807.9656" y2="807.9656"/><ellipse cx="756.9" cy="814.5656" fill="#84BE84" rx="1.8" ry="1.8" style="stroke:#038048;stroke-width:0.6;"/><text fill="#000000" font-family="sans-serif" font-size="8.4" lengthAdjust="spacing" textLength="112.2" x="762.3" y="819.0855">Car_Repository(vector&lt;Car&gt;)</text><ellipse cx="756.9" cy="825.1313" fill="#84BE84" rx="1.8" ry="1.8" style="stroke:#038048;stroke-width:0.6;"/><text fill="#000000" font-family="sans-serif" font-size="8.4" lengthAdjust="spacing" textLength="69" x="762.3" y="829.6512">void set_storage()</text><ellipse cx="756.9" cy="835.6969" fill="#84BE84" rx="1.8" ry="1.8" style="stroke:#038048;stroke-width:0.6;"/><text fill="#000000" font-family="sans-serif" font-size="8.4" lengthAdjust="spacing" textLength="100.8" x="762.3" y="840.2168">vector&lt;Car&gt; get_storage()</text></g><!--MD5=[6f82f09e68f4277aaf2deadadc27c0d1]
class Domain.Car--><g id="elem_Domain.Car"><rect codeLine="70" fill="#F1F1F1" height="329.4375" id="Domain.Car" rx="1.5" ry="1.5" style="stroke:#181818;stroke-width:0.3;" width="148.8" x="13.2" y="25.2"/><ellipse cx="78.15" cy="34.8" fill="#ADD1B2" rx="6.6" ry="6.6" style="stroke:#181818;stroke-width:0.6;"/><path d="M79.35,32.7 Q79.4719,32.4 79.6125,32.25 Q79.7531,32.1 79.9125,32.1 Q80.1938,32.1 80.3719,32.2688 Q80.55,32.4375 80.55,32.8313 L80.55,33.7688 Q80.55,34.1625 80.3813,34.3313 Q80.2125,34.5 79.95,34.5 Q79.7156,34.5 79.5656,34.3969 Q79.4156,34.2937 79.35,34.0219 Q79.3219,33.8344 79.2188,33.7312 Q79.0313,33.5344 78.6938,33.4219 Q78.3563,33.3 78.0188,33.3 Q77.5969,33.3 77.2406,33.4688 Q76.8938,33.6375 76.6219,34.0125 Q76.35,34.3875 76.35,34.9031 L76.35,35.4563 Q76.35,36.075 76.8563,36.4875 Q77.3625,36.9 78.2625,36.9 Q78.7969,36.9 79.1719,36.7781 Q79.3875,36.7125 79.6313,36.4969 Q79.7906,36.375 79.875,36.3375 Q79.9594,36.3 80.0625,36.3 Q80.2594,36.3 80.4,36.4594 Q80.55,36.6094 80.55,36.825 Q80.55,37.0313 80.3438,37.275 Q80.0438,37.6313 79.5656,37.8281 Q78.9375,38.1 78.1688,38.1 Q77.2688,38.1 76.5469,37.7438 Q75.9656,37.4625 75.5531,36.8531 Q75.15,36.2438 75.15,35.5219 L75.15,34.8656 Q75.15,34.1156 75.5063,33.4594 Q75.8719,32.8031 76.5,32.4563 Q77.1375,32.1 77.85,32.1 Q78.2813,32.1 78.6563,32.25 Q79.0313,32.4 79.35,32.7 Z " fill="#000000"/><text fill="#000000" font-family="sans-serif" font-size="8.4" lengthAdjust="spacing" textLength="13.8" x="90.45" y="38.2371">Car</text><line style="stroke:#181818;stroke-width:0.3;" x1="13.8" x2="161.4" y1="44.4" y2="44.4"/><rect fill="none" height="3.6" style="stroke:#C82930;stroke-width:0.6;" width="3.6" x="18" y="49.2"/><text fill="#000000" font-family="sans-serif" font-size="8.4" lengthAdjust="spacing" textLength="67.8" x="25.2" y="55.5199">car_model : string</text><rect fill="none" height="3.6" style="stroke:#C82930;stroke-width:0.6;" width="3.6" x="18" y="59.7656"/><text fill="#000000" font-family="sans-serif" font-size="8.4" lengthAdjust="spacing" textLength="65.4" x="25.2" y="66.0855">car_make : string</text><rect fill="none" height="3.6" style="stroke:#C82930;stroke-width:0.6;" width="3.6" x="18" y="70.3313"/><text fill="#000000" font-family="sans-serif" font-size="8.4" lengthAdjust="spacing" textLength="92.4" x="25.2" y="76.6512">registration_year : string</text><rect fill="none" height="3.6" style="stroke:#C82930;stroke-width:0.6;" width="3.6" x="18" y="80.8969"/><text fill="#000000" font-family="sans-serif" font-size="8.4" lengthAdjust="spacing" textLength="60" x="25.2" y="87.2168">kilometrage : int</text><rect fill="none" height="3.6" style="stroke:#C82930;stroke-width:0.6;" width="3.6" x="18" y="91.4625"/><text fill="#000000" font-family="sans-serif" font-size="8.4" lengthAdjust="spacing" textLength="34.8" x="25.2" y="97.7824">price : int</text><rect fill="none" height="3.6" style="stroke:#C82930;stroke-width:0.6;" width="3.6" x="18" y="102.0281"/><text fill="#000000" font-family="sans-serif" font-size="8.4" lengthAdjust="spacing" textLength="97.2" x="25.2" y="108.348">charge_time_minutes : int</text><rect fill="none" height="3.6" style="stroke:#C82930;stroke-width:0.6;" width="3.6" x="18" y="112.5938"/><text fill="#000000" font-family="sans-serif" font-size="8.4" lengthAdjust="spacing" textLength="38.4" x="25.2" y="118.9137">range : int</text><ellipse cx="19.8" cy="137.925" fill="#84BE84" rx="1.8" ry="1.8" style="stroke:#038048;stroke-width:0.6;"/><text fill="#000000" font-family="sans-serif" font-size="8.4" lengthAdjust="spacing" textLength="85.8" x="25.2" y="142.4449">string get_car_model()</text><ellipse cx="19.8" cy="148.4906" fill="#84BE84" rx="1.8" ry="1.8" style="stroke:#038048;stroke-width:0.6;"/><text fill="#000000" font-family="sans-serif" font-size="8.4" lengthAdjust="spacing" textLength="83.4" x="25.2" y="153.0105">string get_car_make()</text><ellipse cx="19.8" cy="159.0563" fill="#84BE84" rx="1.8" ry="1.8" style="stroke:#038048;stroke-width:0.6;"/><text fill="#000000" font-family="sans-serif" font-size="8.4" lengthAdjust="spacing" textLength="110.4" x="25.2" y="163.5762">string get_registration_year()</text><ellipse cx="19.8" cy="169.6219" fill="#84BE84" rx="1.8" ry="1.8" style="stroke:#038048;stroke-width:0.6;"/><text fill="#000000" font-family="sans-serif" font-size="8.4" lengthAdjust="spacing" textLength="78" x="25.2" y="174.1418">int get_kilometrage()</text><ellipse cx="19.8" cy="180.1875" fill="#84BE84" rx="1.8" ry="1.8" style="stroke:#038048;stroke-width:0.6;"/><text fill="#000000" font-family="sans-serif" font-size="8.4" lengthAdjust="spacing" textLength="52.8" x="25.2" y="184.7074">int get_price()</text><ellipse cx="19.8" cy="190.7531" fill="#84BE84" rx="1.8" ry="1.8" style="stroke:#038048;stroke-width:0.6;"/><text fill="#000000" font-family="sans-serif" font-size="8.4" lengthAdjust="spacing" textLength="115.2" x="25.2" y="195.273">int get_charge_time_minutes()</text><ellipse cx="19.8" cy="201.3188" fill="#84BE84" rx="1.8" ry="1.8" style="stroke:#038048;stroke-width:0.6;"/><text fill="#000000" font-family="sans-serif" font-size="8.4" lengthAdjust="spacing" textLength="59.4" x="25.2" y="205.8387">int get_Range()</text><line style="stroke:#181818;stroke-width:0.6;stroke-dasharray:1.0,2.0;" x1="13.8" x2="58.5" y1="128.4422" y2="128.4422"/><text fill="#000000" font-family="sans-serif" font-size="8.4" lengthAdjust="spacing" textLength="58.2" x="58.5" y="131.5793">Simple_Getters</text><line style="stroke:#181818;stroke-width:0.6;stroke-dasharray:1.0,2.0;" x1="116.7" x2="161.4" y1="128.4422" y2="128.4422"/><ellipse cx="19.8" cy="224.85" fill="#84BE84" rx="1.8" ry="1.8" style="stroke:#038048;stroke-width:0.6;"/><text fill="#000000" font-family="sans-serif" font-size="8.4" lengthAdjust="spacing" textLength="133.2" x="25.2" y="229.3699">int get_registration_year_as_num()</text><line style="stroke:#181818;stroke-width:0.6;stroke-dasharray:1.0,2.0;" x1="13.8" x2="57.3" y1="215.3672" y2="215.3672"/><text fill="#000000" font-family="sans-serif" font-size="8.4" lengthAdjust="spacing" textLength="60.6" x="57.3" y="218.5043">Special_Getters</text><line style="stroke:#181818;stroke-width:0.6;stroke-dasharray:1.0,2.0;" x1="117.9" x2="161.4" y1="215.3672" y2="215.3672"/><ellipse cx="19.8" cy="248.3813" fill="#84BE84" rx="1.8" ry="1.8" style="stroke:#038048;stroke-width:0.6;"/><text fill="#000000" font-family="sans-serif" font-size="8.4" lengthAdjust="spacing" textLength="79.8" x="25.2" y="252.9012">void set_car_model()</text><ellipse cx="19.8" cy="258.9469" fill="#84BE84" rx="1.8" ry="1.8" style="stroke:#038048;stroke-width:0.6;"/><text fill="#000000" font-family="sans-serif" font-size="8.4" lengthAdjust="spacing" textLength="77.4" x="25.2" y="263.4668">void set_car_make()</text><ellipse cx="19.8" cy="269.5125" fill="#84BE84" rx="1.8" ry="1.8" style="stroke:#038048;stroke-width:0.6;"/><text fill="#000000" font-family="sans-serif" font-size="8.4" lengthAdjust="spacing" textLength="104.4" x="25.2" y="274.0324">void set_registration_year()</text><ellipse cx="19.8" cy="280.0781" fill="#84BE84" rx="1.8" ry="1.8" style="stroke:#038048;stroke-width:0.6;"/><text fill="#000000" font-family="sans-serif" font-size="8.4" lengthAdjust="spacing" textLength="84" x="25.2" y="284.598">void set_kilometrage()</text><ellipse cx="19.8" cy="290.6438" fill="#84BE84" rx="1.8" ry="1.8" style="stroke:#038048;stroke-width:0.6;"/><text fill="#000000" font-family="sans-serif" font-size="8.4" lengthAdjust="spacing" textLength="58.8" x="25.2" y="295.1637">void set_price()</text><ellipse cx="19.8" cy="301.2094" fill="#84BE84" rx="1.8" ry="1.8" style="stroke:#038048;stroke-width:0.6;"/><text fill="#000000" font-family="sans-serif" font-size="8.4" lengthAdjust="spacing" textLength="121.2" x="25.2" y="305.7293">void set_charge_time_minutes()</text><ellipse cx="19.8" cy="311.775" fill="#84BE84" rx="1.8" ry="1.8" style="stroke:#038048;stroke-width:0.6;"/><text fill="#000000" font-family="sans-serif" font-size="8.4" lengthAdjust="spacing" textLength="65.4" x="25.2" y="316.2949">void set_Range()</text><line style="stroke:#181818;stroke-width:0.6;stroke-dasharray:1.0,2.0;" x1="13.8" x2="74.1" y1="238.8984" y2="238.8984"/><text fill="#000000" font-family="sans-serif" font-size="8.4" lengthAdjust="spacing" textLength="27" x="74.1" y="242.0355">Setters</text><line style="stroke:#181818;stroke-width:0.6;stroke-dasharray:1.0,2.0;" x1="101.1" x2="161.4" y1="238.8984" y2="238.8984"/><ellipse cx="19.8" cy="335.3063" fill="#84BE84" rx="1.8" ry="1.8" style="stroke:#038048;stroke-width:0.6;"/><text fill="#000000" font-family="sans-serif" font-size="8.4" lengthAdjust="spacing" textLength="31.8" x="25.2" y="339.8262">Car( ... )</text><text fill="#000000" font-family="sans-serif" font-size="8.4" lengthAdjust="spacing" textLength="2.4" x="25.2" y="350.3918"> </text><line style="stroke:#181818;stroke-width:0.6;stroke-dasharray:1.0,2.0;" x1="13.8" x2="63.3" y1="325.8234" y2="325.8234"/><text fill="#000000" font-family="sans-serif" font-size="8.4" lengthAdjust="spacing" textLength="48.6" x="63.3" y="328.9605">Constructors</text><line style="stroke:#181818;stroke-width:0.6;stroke-dasharray:1.0,2.0;" x1="111.9" x2="161.4" y1="325.8234" y2="325.8234"/></g><path d="M183.3,163.2 L183.3,168.7055 L57,336.3891 L183.3,173.5055 L183.3,179.0109 A0,0 0 0 0 183.3,179.0109 L296.7,179.0109 A0,0 0 0 0 296.7,179.0109 L296.7,169.2 L290.7,163.2 L183.3,163.2 A0,0 0 0 0 183.3,163.2 " fill="#FEFFDD" style="stroke:#181818;stroke-width:0.3;"/><path d="M290.7,163.2 L290.7,169.2 L296.7,169.2 L290.7,163.2 " fill="#FEFFDD" style="stroke:#181818;stroke-width:0.3;"/><text fill="#000000" font-family="sans-serif" font-size="7.8" lengthAdjust="spacing" textLength="100.8" x="186.9" y="174.2971">Explicit request all attributes!</text><path d="M183.3,185.0109 L183.3,195.4219 L105,249.4641 L183.3,200.2219 L183.3,210.6328 A0,0 0 0 0 183.3,210.6328 L296.1,210.6328 A0,0 0 0 0 296.1,210.6328 L296.1,191.0109 L290.1,185.0109 L183.3,185.0109 A0,0 0 0 0 183.3,185.0109 " fill="#FEFFDD" style="stroke:#181818;stroke-width:0.3;"/><path d="M290.1,185.0109 L290.1,191.0109 L296.1,191.0109 L290.1,185.0109 " fill="#FEFFDD" style="stroke:#181818;stroke-width:0.3;"/><text fill="#000000" font-family="sans-serif" font-size="7.8" lengthAdjust="spacing" textLength="100.2" x="186.9" y="196.108">Take care of exceptions here</text><text fill="#000000" font-family="sans-serif" font-size="7.8" lengthAdjust="spacing" textLength="46.8" x="186.9" y="205.9189">for all setters!</text><!--MD5=[03489d9f1e16630d20ce9e581cdffe5e]
reverse link UI.User to UI.Manager--><g id="link_UI.User_UI.Manager"><path codeLine="26" d="M511.8,489.6 C511.8,489.6 468.516,499.2 445.2,522.6 C421.524,546.354 407.142,583.458 400.104,605.934 " fill="none" id="UI.User-backto-UI.Manager" style="stroke:#181818;stroke-width:0.6;"/></g><!--MD5=[0b69825ed0fc1382bf1e653fe70bac61]
reverse link UI.User to UI.Client--><g id="link_UI.User_UI.Client"><path codeLine="27" d="M511.8,489.6 C511.8,489.6 516.888,550.104 520.266,590.28 " fill="none" id="UI.User-backto-UI.Client" style="stroke:#181818;stroke-width:0.6;"/></g><!--MD5=[132c963044dc2a803644bb1c6fd2eeb1]
link UI to Controller--><g id="link_UI_Controller"><path d="M610.2975,521.7595 C610.332,521.9489 610.3666,522.1385 610.4015,522.3282 C610.6801,523.8455 610.9698,525.3702 611.2697,526.9001 C611.8694,529.9601 612.5097,533.0413 613.1827,536.1278 C614.5286,542.3009 616.0051,548.4952 617.5491,554.5834 C620.637,566.7596 623.9948,578.511 627.117,588.8175 C628.6781,593.9708 630.1804,598.7628 631.5606,603.0661 C632.2507,605.2177 632.9103,607.2472 633.5315,609.1386 C633.6868,609.6114 633.8397,610.0756 633.99,610.531 C634.0276,610.6448 634.0651,610.7581 634.1024,610.8708 C634.121,610.9271 634.1396,610.9834 634.1581,611.0394 " fill="none" id="UI-to-Controller" style="stroke:#181818;stroke-width:0.6;stroke-dasharray:7.0,7.0;"/><polygon fill="#FFFFFF" points="634.1581,611.0394,634.5639,598.8971,626.5893,601.5362,634.1581,611.0394" style="stroke:#181818;stroke-width:0.6;"/><text fill="#000000" font-family="sans-serif" font-size="7.8" lengthAdjust="spacing" textLength="21.6" x="610.2" y="515.6971">USES</text></g><!--MD5=[da2b0c2b22cf103a58206eacc11d7a31]
link Controller to Repository--><g id="link_Controller_Repository"><path d="M646.8151,707.732 C646.8658,707.883 646.9167,708.0339 646.9679,708.1846 C647.1728,708.7875 647.3824,709.3878 647.5966,709.9852 C648.4536,712.3748 649.386,714.7185 650.4,717 C661.098,741.066 680.3055,763.5345 697.0545,780.1485 C705.429,788.4555 713.1889,795.2989 718.9631,800.1465 C720.4067,801.3584 721.7261,802.4456 722.9001,803.3997 C723.1936,803.6382 723.478,803.8684 723.7529,804.0902 C723.8904,804.2011 724.0255,804.3099 724.1582,804.4165 " fill="none" id="Controller-to-Repository" style="stroke:#181818;stroke-width:0.6;stroke-dasharray:7.0,7.0;"/><polygon fill="#FFFFFF" points="724.1582,804.4165,717.9024,794.0019,712.6409,800.5499,724.1582,804.4165" style="stroke:#181818;stroke-width:0.6;"/><text fill="#000000" font-family="sans-serif" font-size="7.8" lengthAdjust="spacing" textLength="21.6" x="658.2" y="730.4971">USES</text></g><!--MD5=[aa01fa8063bdbd2712156a198c7f111e]
link App to UI--><g id="link_App_UI"><path codeLine="116" d="M647.178,209.766 C637.164,245.034 616.482,322.518 607.8,389.4 C607.5634,391.2232 607.3468,393.0765 607.1487,394.9492 C607.0496,395.8856 606.9552,396.8268 606.8652,397.7715 C606.8426,398.0077 606.8204,398.2441 606.7985,398.4807 C606.7875,398.599 606.7766,398.7174 606.7657,398.8358 " fill="none" id="App-to-UI" style="stroke:#181818;stroke-width:0.6;stroke-dasharray:7.0,7.0;"/><polygon fill="#FFFFFF" points="606.7657,398.8358,611.9878,387.8662,603.6227,387.1003,606.7657,398.8358" style="stroke:#181818;stroke-width:0.6;"/><text fill="#000000" font-family="sans-serif" font-size="7.8" lengthAdjust="spacing" textLength="27" x="609.6" y="382.4971">Creates</text></g><!--MD5=[c1f66048c356f227fac1d34d1d334670]
link App to Controller--><g id="link_App_Controller"><path codeLine="117" d="M652.188,209.742 C650.865,251.475 647.6085,354.0495 644.6625,446.8282 C643.926,470.0229 643.2089,492.6054 642.5463,513.4719 C642.3806,518.6885 642.2184,523.7979 642.0601,528.7828 C642.0403,529.4059 642.0206,530.0271 642.0009,530.6463 " fill="none" id="App-to-Controller" style="stroke:#181818;stroke-width:0.6;stroke-dasharray:7.0,7.0;"/><polygon fill="#FFFFFF" points="642.0009,530.6463,646.5606,519.3853,638.1648,519.1187,642.0009,530.6463" style="stroke:#181818;stroke-width:0.6;"/><text fill="#000000" font-family="sans-serif" font-size="7.8" lengthAdjust="spacing" textLength="27" x="646.8" y="460.4971">Creates</text></g><!--MD5=[ffbdcf971f669b23cf2a423f5a1afe62]
link App to Repository--><g id="link_App_Repository"><path codeLine="118" d="M672.612,206.928 C724.344,251.286 862.866,379.788 912,522.6 C940.11,604.302 969.372,652.398 912,717 C861,774.426 795.816,684.228 740.4,737.4 C737.5703,740.115 735.2643,743.2338 733.396,746.6159 C733.3377,746.7216 733.2797,746.8275 733.2222,746.9337 " fill="none" id="App-to-Repository" style="stroke:#181818;stroke-width:0.6;stroke-dasharray:7.0,7.0;"/><polygon fill="#FFFFFF" points="733.2222,746.9337,742.3451,738.9105,734.9592,734.9095,733.2222,746.9337" style="stroke:#181818;stroke-width:0.6;"/><text fill="#000000" font-family="sans-serif" font-size="7.8" lengthAdjust="spacing" textLength="27" x="909.6" y="515.6971">Creates</text></g><!--MD5=[6f258ea3d79601ee190a243b1044b19e]
@startuml
skinparam groupInheritance 2

together {
class App {
+ main()
}

namespace UI {

class User {
+ void showMenu()
}

class Manager {
+ void showMenu()
}

class Client {
- favorites : vector<Car>
+ void showMenu()
+ vector<Car> get_favorites()
+ void set_favorties(vector<Car>)

}

User <|- - Manager
User <|- - Client

class UserInterface {
- user : User
- auto_ctrl : Controller
+ void simple_init()
}

}

namespace Controller {

class Car_Controller {
- car_repo : Car_Repository

+ Car_Controller(Car_Repository car_repo)
+ Car_Repository get_car_repo()
+ void set_car_repo(Car_Repository car_repo)
+ void add_car(Car car)
+ bool delete_car(Car car)
+ bool update_car(Car old_car, Car new_car)
+ vector<Car> search_car(string car_model, string car_make)
+ vector<Car> filter_car(int car_age, int car_km)
+ vector<Car> asc_sort()
}

}

namespace Repository {

class Car_Repository {
- storage : vector<Car>

+ Car_Repository(vector<Car>)
+ void set_storage()
+ vector<Car> get_storage()
}

}
}

namespace Domain {

class Car {
- car_model : string
- car_make : string
- registration_year : string
- kilometrage : int
- price : int
- charge_time_minutes : int
- range : int
..Simple_Getters..
+ string get_car_model()
+ string get_car_make()
+ string get_registration_year()
+ int get_kilometrage()
+ int get_price()
+ int get_charge_time_minutes()
+ int get_Range()
..Special_Getters..
+ int get_registration_year_as_num()
..Setters..
+ void set_car_model()
+ void set_car_make()
+ void set_registration_year()
+ void set_kilometrage()
+ void set_price()
+ void set_charge_time_minutes()
+ void set_Range()
..Constructors..
+ Car( ... )

}
note right of Car::Car
    Explicit request all attributes!
end note


note right of Car::set_car_model
    Take care of exceptions here
    for all setters!
end note


}


UI ..|> Controller : USES
Controller ..|> Repository : USES
App ..|>  UI : Creates
App ..|>  Controller : Creates
App ..|>  Repository : Creates



@enduml

PlantUML version 1.2022.4(Sat Apr 09 16:29:17 EEST 2022)
(GPL source distribution)
Java Runtime: OpenJDK Runtime Environment
JVM: OpenJDK 64-Bit Server VM
Default Encoding: Cp1252
Language: en
Country: US
--></g></svg>